<svg xmlns="http://www.w3.org/2000/svg" width="90" height="90" shape-rendering="geometricPrecision" image-rendering="optimizeQuality" fill-rule="evenodd" xmlns:v="https://vecta.io/nano"><path d="M63.05 70.45l-42.81.01c-1.21 0-.96.13-.96-2.93h43.93c0 .7.09 2.36-.16 2.92zM5.01 13.71v50.58c0 1.68 1.57 3.24 3.24 3.24h8.6c0 2.25-.49 4.6 1.93 5.36.99.31 11.29.15 12.82.15-.17.72-.98 2.11-1.35 2.87-.29.57-.51.84-.76 1.34-.45.88-3.57 6.72-3.57 7.3 0 1.13.73 1.55 1.4 1.4.86-.18 1.04-.92 1.36-1.56.63-1.27 1.3-2.44 1.94-3.73l3.9-7.62h13.45c.66 1.24 1.24 2.48 1.89 3.78l.92 1.84 2.92 5.68c.33.66.54 1.4 1.33 1.59.71.16 1.53-.32 1.53-1.22 0-.62-3.55-7.26-4.32-8.8-.51-1.02-.93-1.99-1.51-2.87 1.65 0 11.85.23 12.95-.17.59-.22.95-.43 1.34-.93.9-1.14.62-2.45.62-4.41h7.3c1.48 0 1.49-1.94.55-2.34-.74-.31-55.37-.09-62.8-.09-1.58 0-3.25.32-3.25-1.3V14.19c0-1.49 1.45-1.29 2.92-1.29h4.38c.51-.77.65-.28.65-1.46 0-.4-.41-.61-.65-.97H8.25c-1.67 0-3.24 1.56-3.24 3.24h0zm69.87 44.26c1.13-.27 2.83-1.51 3.73-2.11.14.51.73 1.38 1.03 1.89l5.4 9.35c.37.69.65 1.36.35 2.18-.65 1.76-3.04 1.7-3.86.36l-4.74-8.24-.94-1.65-.48-.81-.23-.42-.07-.1c-.01-.03-.04-.07-.06-.1-.08-.18-.12-.34-.13-.35zm13.13 10.12v.88c-.15 1.67-1.19 3.2-2.91 3.92-.39.16-1.2.31-1.79.31-3.22 0-4.2-2.88-5.15-4.41l-.62-1-5.09-9.01c-1.64.78-5.36.39-7.17.04-3.12-.61-6.96-2.97-8.81-5.46-.89-1.19-1.7-2.31-2.27-3.73-.42-1.03-.71-1.88-.98-3.08-.2-.93-.39-2.47-.39-3.5 0-1.92.73-4.83 1.57-6.54 1.64-3.34 4.58-6.41 8.06-7.82 5.24-2.13 11.18-1.7 15.69 1.69 5.94 4.46 8.44 12.65 5.27 19.27-.43.9-.8 1.57-1.31 2.41-.19.32-1.55 2.01-1.55 2.01 0 .46 3.42 6.07 3.89 6.98l1.94 3.4c.2.34.31.48.54.92.23.43.27.4.49.8.34.62.53 1.27.59 1.92zM55.43 43.86c0-4.85 1.79-8.65 5.55-11.47 3.14-2.35 7.32-2.94 11.21-2.05 2.25.51 4.34 1.88 6.03 3.38.86.76 2.08 2.65 2.6 3.71 2.34 4.66 1.59 10.81-1.68 14.42l-.76.86c-.07.07-.21.14-.38.27-1.42 1.19-.9 1.12-3.34 2.34-3.51 1.76-8.02 1.86-11.51.11-4.34-2.2-7.72-6.38-7.72-11.57zm-10.22-6.81c0-1.75 3.09-2.26 3.09.17 0 1.47-1.83 1.8-2.63 1-.16-.16-.46-.92-.46-1.17h0zm-21.07-1.46c1.07 0 1.97.38 1.91 1.61-.04.9-1.37 2.12-2.61 1.04-.31-.27-.44-.42-.5-.94-.11-.92.62-1.71 1.2-1.71zm11.35-6.32c3.29 0 1.25 4.49-.86 2.65-1.07-.93-.43-2.65.86-2.65zm20.91-7.78c0-2.17 3.08-1.73 3.08-.32 0 2.78-3.08 2.16-3.08.32zm-1.78 2.43l-6.49 9.24c-1.18-.1-1.8-.49-3.46.43-.89.5-.19.71-2.75-.7-.54-.29-1.68-1.06-2.22-1.19 0-1.92-.07-2.48-.94-3.59-1.4-1.8-4.53-2.06-6.31.06-.78.93-.85 1.87-.85 3.53l-2.14 1.1c-3.87 2.43-1.45.2-5.16.2-.53 0-1.12.2-1.56.38-1.56.66-2.33 2.23-2.33 4 0 1.75 1.81 3.72 3.57 3.72 1.98 0 2.25 0 3.69-1.49.87-.89.85-1.69.85-3.37l4.37-2.43c1.03.69 1.1.97 2.92.97 1.35 0 1.8-.44 2.6-.97l4.37 2.43c0 1.93-.05 2.22.84 3.38 2.1 2.76 7.27 1.71 7.27-2.73 0-.91-.44-1.72-.81-2.27l4.96-6.88.81-1.13.88-1.23c2.42 1.16 6.59-1.8 5-5.49-1.33-3.11-5.85-3.36-7.39-.3-.24.48-.56 1.56-.48 2.15.16 1.16.33 1.38.76 2.18h0zM36.95 8.2c0-.33.06-.65.65-.65h7.29c.93 0 .65.99.65 2.92h-8.59V8.2zm-2.6.97v1.3H19.12c-.74 0-.85.34-1.3.64 0 1.63.03.87.65 1.79H71.8c1.57 0 2.08-.19 3.08.48v10.87c-.01 2.37.46 2.43 1.95 2.43.3-.45.65-.56.65-1.3V13.87c0-.91-.46-1.81-.93-2.31-.49-.53-1.36-1.09-2.32-1.09H47.97c0-1.98.52-5.52-3.4-5.52h-6.65c-2.61 0-3.57 1.79-3.57 4.22h0zm22.86 34.2c0 3.64 1.61 6.44 4.09 8.72 3.76 3.45 9.61 3.69 14.1.72.99-.66 2.21-1.84 2.85-2.82a15.08 15.08 0 0 0 1.07-1.86c1.3-2.64 1.31-5.25.62-8.03-.35-1.4-.53-1.45-1.17-2.4-3.46 0-.97 2.16-.97 5.35 0 1.67-.08 2.61-.86 4.16-1.4 2.78-4.26 5.08-7.57 5.08-2.75 0-4.28-.34-6.37-2.06-1.12-.92-1.64-1.64-2.33-3.02-2.1-4.17-.6-9.62 4.21-12.05 5.18-2.61 9.17 1.08 10.16 1.08h.65c.47-.7 1.45-1.32-.48-2.59-4.05-2.68-8.96-2.55-13.01.13-3.05 2.02-4.99 5.8-4.99 9.59h0zm-22.69.33h2.27v14.43h-2.27V43.7zm-2.6-1.3v16.86c0 .79.51 1.3 1.3 1.3h4.86c.79 0 1.3-.51 1.3-1.3V42.24c0-.27-.37-1.14-1.3-1.14h-4.86c-.79 0-1.3.52-1.3 1.3zm-6.64 15.73h-1.95v-8.27h2.43v7.78c0 .37-.11.49-.48.49h0zm-4.54-9.4v10.21c0 2.24 1.79 1.62 6.16 1.62.78 0 1.29-.51 1.29-1.3V48.4c0-1.66-3.82-1.13-5.67-1.13-1.01 0-1.78.46-1.78 1.46h0zm24.8 8.91v-7.78h2.43v8.27h-1.94c-.38 0-.49-.12-.49-.49h0zm-2.43-9.08v10.7c0 .79.51 1.3 1.29 1.3 1.68 0 5.22.31 5.78-.38a2.09 2.09 0 0 0 .38-1.08V49.05c0-2.39-2.35-1.78-5.99-1.78-.8 0-1.46.46-1.46 1.29zm11.18 7.14v4.21c.49.43.57.62.98.65h5.35c1.15 0 1.64-2.43-.17-2.43h-3.72v-2.92c-.68-.45-.37-.65-1.3-.65-.76 0-1.14.38-1.14 1.14z"/></svg>