<svg xml:space="preserve" width="90" height="90" fill-rule="evenodd" clip-rule="evenodd" image-rendering="optimizeQuality" shape-rendering="geometricPrecision" text-rendering="geometricPrecision" version="1.0"><g><path d="M8.83 17.47c-.81-1.69-.9-3.44-4.12-3.44-2.17 0-3.44 1.99-3.44 3.95 0 1.7.73 3.31 1.11 4.92.34 1.49.9 5.26 2.84 3.67.23-.18.06.03.3-.39.61-1.07-.4-3.3-.71-4.52-.34-1.38-.65-2.7-.96-4.02.2-.38.29-.52.52-.86h1.2c.99 1.48 1.69 5.92 2.13 7.67.33 1.33.62 2.65.93 3.88l10.52 43.45c.34 1.37.61 2.62.96 4.02.19.77.29 1.16.45 1.96.36 1.73 1.18 2.22-.55 3.13-1.4-.67-.92-.22-1.72-3.44L6.98 30.66c-.22-.89-.33-.74-.72-1.33H4.88c-.27.4-.68.71-.65 1.35l11.55 47.74c.77 3.07 1.02 5.05 4.74 5.05 1.14 0 2.26-1.01 2.76-1.89.97-1.73-.05-4.32-.52-6.19l-7.22-29.91c1.33-.64 5.07-1.8 6.56-2.2 10.2-2.72 17.83-3.56 28.85-3.13 1.07.04 4.29 1.03 4.29-1.02 0-.62-.3-1.09-.79-1.28-1.79-.7-9.94-.44-12.1-.44-7.13 0-14.95 1.32-21.33 3.41-.56.19-1.01.28-1.59.47-1.5.51-3.17.94-4.58 1.62-.03-1.25-.96-4.38-1.3-5.74-.51-2-4.03-15.6-4.03-17.12.69-.16 1.28-.44 1.89-.69 3.28-1.34 6.68-2.38 10.11-3.3 4.41-1.18 9.02-2.05 13.6-2.56.57-.06 1.69-.25 2.26-.32.43-.05.93.02 1.36-.01.66-.05.45-.15 1.2-.18 5.54-.21 7.91 0 12.9.17 2.34.09 9.58 1.31 11.79 1.8 1.5.33 2.85.62 4.3 1.03 1.41.4 2.75.74 4.13 1.2l3.95 1.38c1.37.46 2.62 1.15 4.01 1.48 0 2.03-5.28 20.81-5.32 22.86-.56-.27-1.3-.45-1.89-.69-3.23-1.34-11.65-3.78-14.96-3.78-1.37 0-1.82 2.22.24 2.68 2.45.55 4.76.81 7.22 1.55 2.05.62 6.78 1.9 8.7 2.81l-7.22 29.91c-.47 1.87-1.49 4.46-.52 6.19 1.54 2.73 5.8 2.41 6.86-.53.5-1.4 3.29-13.03 3.29-14.08 0-1.5-2.17-1.87-2.66.1-.18.73-.3 1.22-.47 1.93l-1.86 7.77c-.99 3.97-.47 3.44-1.89 4.12-.43-.22-.69-.23-.86-.69-.51 0 .16-1.8.24-2.16l12.89-53.46c.35-1.4.62-2.65.96-4.02.33-1.3.53-2.77 1.21-3.78h1.2c.23.34.31.48.52.86.11.86-5.73 22.8-6.69 27.68-.76 3.85-1.84 7.31-2.66 11.1-.22.99-.44 1.75-.69 2.75-.25 1.01-1.49 4.19.58 4.19 1.17 0 1.38-.83 1.62-1.82l8.39-34.76c.23-.93.47-1.83.69-2.91.41-2.02 1.34-4.27 1.34-6.4 0-3.4-4.25-4.34-6.33-2.37-.73.7-.82 1.5-1.24 2.37l-7.45-2.69c-6.15-2.05-12.7-3.31-19.18-4.03-7.27-.8-14.55-.64-21.82.2-4.44.52-8.58 1.44-12.88 2.6-1.26.34-2.68.76-3.96 1.19l-5.72 2.02c-.59.23-1.28.57-1.87.71"/><path d="M40.12 25.72c-.58-.42-3.52-5.17-4.29-6.2-.65-.87-2.42-.63-2.42.53 0 1.98.33 3.99.35 5.16 0 .59.5 6.44.74 6.81.81 1.26 2.06.67 2.42-.22.23-.55-.23-3.17-.24-4.2 0-.86-.17-1.18-.17-2.23l.31.38c.16.22.19.29.34.52l1.88 2.76c.46.6.85 1.24 1.25 1.84.58.88.52 1.1 1.72 1.38 1-.53 1.28-.43 1.21-2.07-.07-1.6-.43-3.36-.52-6.02l-.34-3.09c-.13-1.21.15-2-.77-2.51-.89-.48-1.8.18-1.96 1-.16.74.49 5.28.49 6.16M61.09 33.62h.68c1.56-2.32.85-3.15 1.72-4.98 1.24.1 2.55.76 3.78.86-.13 1.67-2.31 5.84.35 5.84 1.45 0 1.87-3.53 2.4-5.67.27-1.07 1.55-5.8 1.55-6.53 0-.99-.57-1.04-1.2-1.38-1.39.33-1.3.7-1.65 2.14-.27 1.08-.52 2-.76 3.02-.98-.23-2.8-.84-3.78-.86.03-1.13 1.14-4.25.93-4.87-.42-1.3-2.14-1.31-2.58-.05l-2.37 9.49c-.31 1.24-.9 2.99.93 2.99"/><path d="M51.63 22.62c0 4.9 4.64 3.51 4.64 6.36v.35c-.41.27-2.19 1.78-2.82-.62-.13-.49-.03-.74-.2-1.17-.15-.37-.36-.45-.58-.79h-1.38c-.56.83-.77.72-.56 1.93.18 1.08.2 1.28.69 2.06.4.63.74.98 1.38 1.38 4.3 2.7 10.1-4.12 2.73-7.72-3.29-1.6.72-4.41 1.6-1.6.66 2.09 2.29 1.45 2.66.4.2-.57-.13-1.37-.36-1.84-2.19-4.43-7.8-2.17-7.8 1.26M18.98 22.97c0 1.15 1.88 8.3 2.19 9.83.22 1.08.39 2.54 1.59 2.54.47 0 1.37-.57 1.37-1.03 0-.86-.25-1.7-.44-2.47-.19-.75-.32-1.79-.59-2.34.72-.02 3.61-.37 3.61-1.72 0-.78-.37-.9-.69-1.37-1.71 0-1.75.12-3.43.51-.24-.5-.54-2.09-.69-2.75 1.19-.57 4.12-.37 4.12-2.06 0-.6-.73-1.29-1.23-1.35l-4.34.93c-.76.17-1.47.45-1.47 1.28M46.82 31.91c.78 0 .9-.37 1.38-.69l.34-6.02c-.01-2.27.17-4.01.17-6.36-.71-.48-.38-.68-1.37-.68-.72 0-1.07.33-1.18.88-.09.46-.2 1.42-.2 1.86-.02.69.02 1.39.01 2.07-.01.87-.18.94-.18 1.88l-.17 3.96c0 .88-.34 3.1 1.2 3.1M28.09 20.56c0 2.51.54 4.82.96 7.29.2 1.21.32 2.1.51 3.26.12.69.07 1.03.3 1.6.69 1.65 2.52.76 2.52-.29L30.6 20.8c-.19-.62-.67-.68-1.14-.93-1 .24-.7.24-1.37.69"/></g></svg>