<svg xmlns="http://www.w3.org/2000/svg" width="90" height="90" shape-rendering="geometricPrecision" image-rendering="optimizeQuality" fill-rule="evenodd" xmlns:v="https://vecta.io/nano"><path d="M5.44 18.42v57.19c0 .91.2 1.34.52 1.98.42.85.46.8 1.08 1.42.84.85 2.06 1.44 3.71 1.44h69.37c2.13 0 3.94-1.14 4.75-2.75.34-.68.57-1.13.57-2.09V44.05c0-1.5-2.34-1.93-2.35.3l-.01 30.94c-.15 1.4-1.07 2.66-2.64 2.66h-70c-1.51 0-2.66-1.32-2.66-2.81V30.61h75.31v7.97c0 1.61 2.35 1.61 2.35 0V18.42c0-2.56-2.39-4.84-5.32-4.84H25.75c-1.34 0-1.98 1.65-.64 2.35.45.23 1.21.15 1.89.15h51.25c1.88 0 4.84-.47 4.84 3.12v9.07H7.78v-9.38c0-1.26.83-2.31 1.73-2.64 1.32-.5 9.47.06 10.75-.19 1.58-.32 1.36-2.48-.29-2.48h-9.22c-1.56 0-2.83.56-3.64 1.36-.92.92-1.67 1.94-1.67 3.48h0zm41.72 36.1c0 4.2 2.56 8.39 6.09 10 2.21 1.01 3.28 1.09 5.62 1.09 1 0 1.37-.24 2.19-.31 0 1.34.37 2.68.94 3.75-.43.22-.49.23-.76.65-1.18 1.8.19 3.72-.96 3.72-6.36 0-4.55.42-4.85-2.33-.2-1.86-1.46-2.29-2.91-2.87-.7-.28-1.43-.73-2.24-.73-1.98 0-3 2.18-3.44 2.18-.46 0-3.52-3.25-3.75-3.59 1.21-1.81 3.04-2.18 1.83-4.95-.52-1.18-.74-2.45-1.7-3.15-.17-.13-.27-.18-.49-.29-.3-.15-.71-.32-1.05-.35-2.73-.31-2.34 1.52-2.34-4.7 0-1.11 1.46-.39 2.79-.65.18-.04.79-.33.96-.44 1.42-.88-.21-.82 2.44-.09.29.08 1.65.22 1.94.24-.08.99-.31 1.62-.31 2.82h0zm7.03-14.07c2.28-1.53.47-4.37 1.72-4.37 6.14 0 4.66-.44 4.84 2.19a2.99 2.99 0 0 0 .89 1.92c.62.56 1.01.58 1.77.89.32.13.64.24.99.41 2.99 1.51 4.28-1.66 5.1-1.66.43 0 2.88 2.58 3.45 3.27a.5.5 0 0 1 .07.08c.02.02.05.06.07.09-.89 1.68-2.18 1.46-2.18 3.75 0 .7 1.3 3.63 1.53 3.94 1.54 2.07 4.4.22 4.4 1.68 0 6.5.36 4.24-2.47 4.72-.3.05-.86.23-1.15.41-.58.36-.66.46-.75.81-1.19-.28-1.59-.78-3.75-.78.76-3.27.6-6.29-1.31-9.16-.89-1.33-1.54-2.25-2.75-2.25-.32 0-.94.43-.94 1.1 0 .8.77 1.27 1.44 2.15 1.19 1.59 1.53 3.36 1.53 5.5 0 1-.25 1.37-.32 2.19-.7-.47-1.99-1.92-2.69-2.62l-2.73-2.73c-.52-.52-5.16-4.84-5.36-5.59.75-.02 2.06-.46 3.43-.3.3.04 1.43.45 2.01-.2.44-.48.65-1.53-.6-1.99-1.8-.66-4.43.06-5.46.15 0-1.44-.11-2.33-.78-3.6h0zm-6.88-1.87c3.36 0 5.7 2.85 5.16 6.25-.37 2.31-1.02 1.09 3.08 5.19l8.99 8.99c2.59 2.59 1.18 1.29 4.8 1.29.91 0 1.35.2 1.98.52 1.93.97 2.84 2.53 3.02 4.79-1.31-.88-1.24-1.72-3.75-1.72-1.66 0-2.99 1.49-3.25 2.85-.49 2.59 1.15 3.38 1.69 4.18-2.99 0-5.47-2.35-5.47-5.62 0-3.03 2.02-.88-3.71-6.6-.43-.44-1.01-1.21-1.76-1.21-.61 0-1.2.7-1.2 1.25.01 1 2.72 2.74 3.7 4.21-.63.02-1.48.24-2.04.31-1.74.2-4.06-.73-5.46-1.71-1.73-1.21-3.43-3.89-3.43-6.1l.15-3.12c1.03.27 3.36 3.75 4.38 3.75.71 0 .81-.34 1.25-.63 0-1.72-.73-1.9-2.7-3.86-4.13-4.13-2.25-2.39-5.58-2.39-1.45 0-2.8-.68-3.72-1.6-.87-.88-1.56-2.21-1.6-3.86 1.12.74.89 1.33 2.67 1.71 3.15.67 5.62-2.62 3.83-5.56-.38-.63-.69-.81-1.03-1.31h0zm5.63-.16c-1.83-1.22-2.71-2.34-5.94-2.34-1.14 0-3.13.31-3.13 1.72 0 2.11 2.66 2.3 2.66 4.22 0 .61-.58 1.09-1.25 1.09-.84 0-1.43-.88-1.91-1.37-.27-.26-.51-.56-.78-.78-.66-.55-1.29-.61-2.05-.25-.37.17-.46.26-.63.62-1.06 2.26-.18 5.28 1.09 7.16.22.32.81.86.76 1-.13.37-2.44.02-3.16.38-.64.32-1.6 1.26-1.6 2.15v5.15c0 1.07.7 1.92 1.45 2.3 1.02.51 1.97.36 3.39.36l1.1 2.81-.29.34c-1.19 1.39-1.9 1.33-1.9 3.26 0 1.3.98 1.99 1.68 2.69l2.19 2.19c2.72 2.76 5.19-1.13 5.5-1.13.94 0 1.8.85 2.82.93 0 2.38-.26 5 3.59 5 1.13 0 3.97.12 4.9-.25 2.01-.82 1.82-2.93 1.82-4.75.39.26.46.44.84.73 3.04 2.24 8.22 2.47 8.22-.26 0-1.57-2.65-2.62-2.65-3.75 0-.66.38-1.1.91-1.29.6-.21 1.13.13 1.55.54 1 .98 1.48 2 2.85 2 2.39 0 2.18-5.27.25-7.9-.31-.42-.62-.77-.88-1.16 1.43 0 2.37.15 3.4-.36.75-.38 1.45-1.23 1.45-2.3v-5.15c0-.85-.87-1.7-1.41-2.04-.76-.47-2.06-.31-3.28-.31-.47-.9-.77-1.91-1.25-2.81.93-1.38 3.65-2.66 1.28-5.65-.43-.54-3.05-3.16-3.78-3.57-2.13-1.21-3.52.89-4.52 1.73l-2.98-.95c0-5.58-1.61-4.84-7.5-4.84-2.89 0-2.81 3.15-2.81 4.84h0zm-7.5-16.09c0-.46.41-.78.62-1.1h30c.88 1.31.88.88 0 2.19h-30c-.21-.31-.62-.63-.62-1.09zm-2.35-.31c0 2.42 1.42 3.9 3.75 3.9h28.44c5.02 0 5.02-7.19 0-7.19H46.84c-1.92 0-3.75 1.4-3.75 3.29zM12 57.02v.62c.43.29.54.63 1.25.63h18.59c.71 0 .82-.34 1.25-.63 0-.99.05-1.87-1.72-1.87H13.72c-.93 0-1.72.3-1.72 1.25z"/><path d="M12 47.64v.63c.43.29.54.62 1.25.62h18.59c.71 0 .82-.33 1.25-.62 0-1 .05-1.88-1.72-1.88H13.72c-.93 0-1.72.3-1.72 1.25zm4.06-24.22c-1.01 0-.82.03-1.56-.47V21.7c.74-.49.55-.47 1.56-.47.88 1.31.88.88 0 2.19h0zM12 22.17c0 4.81 6.83 4.97 7.11.26.12-1.9-1.71-3.7-3.52-3.7-1.86 0-3.59 1.61-3.59 3.44h0zm13.44 1.25c-1.01 0-.83.03-1.57-.47V21.7c.74-.49.56-.47 1.57-.47.87 1.31.87.88 0 2.19h0zm-4.07-1.25c0 4.81 6.84 4.97 7.12.26.11-1.9-1.71-3.7-3.52-3.7-1.86 0-3.6 1.61-3.6 3.44h0zm13.44 1.25c-1 0-.82.03-1.56-.47V21.7c.74-.49.56-.47 1.56-.47.88 1.31.88.88 0 2.19h0zm-4.06-1.25c0 4.81 6.83 4.97 7.11.26.12-1.9-1.71-3.7-3.52-3.7-1.86 0-3.59 1.61-3.59 3.44h0zM19.66 61.7v.63c.43.29.54.62 1.24.62h10.94c.71 0 .82-.33 1.25-.62 0-.99.05-1.88-1.72-1.88h-10c-.93 0-1.71.31-1.71 1.25h0z"/><path d="M23.56 53.58h8.28c.71 0 .82-.33 1.25-.63 0-.99.05-1.87-1.72-1.87H24.5c-3 0-2 2.5-.94 2.5h0zM12 52.33v.62c.43.3.54.63 1.25.63h5.78c1.68 0 1.82-2.5-.47-2.5h-4.84c-.93 0-1.72.3-1.72 1.25zm0 9.37v.63c1.37.92.91.62 4.06.62 1.63 0 1.9-2.5-.47-2.5-1.49 0-3.59-.31-3.59 1.25z"/></svg>