<svg xmlns="http://www.w3.org/2000/svg" width="90" height="90" shape-rendering="geometricPrecision" image-rendering="optimizeQuality" fill-rule="evenodd" xmlns:v="https://vecta.io/nano"><path d="M57.65 73.15c0-.68.77-1.37 1.54-1.37h5.14c1.99 0 1.99 2.74 0 2.74h-5.14c-.77 0-1.54-.7-1.54-1.37zm0-5.49c0-1.66 2.43-1.37 3.42-1.37.74 0 1.47 1.98 4.8 1.2-.07.88-.62 1.54-1.54 1.54h-5.14c-.77 0-1.54-.69-1.54-1.37zm10.44-2.05c.77-1.46.52-2.71.52-4.8h2.74v20.21c0 5.85-8.22 5.85-8.22 0v-3.76h1.71c2.1 0 3.77-1.8 3.77-4.46 0-1.26-.86-1.97-.86-2.4 0-.37 1.72-2.19.34-4.79zm-10.44-3.43c0-.67.77-1.37 1.54-1.37h1.2v2.74h-1.2c-.77 0-1.54-.69-1.54-1.37zm8.22 1.2c0 1.99-2.74 1.99-2.74 0v-6.51a1.55 1.55 0 0 1 1.54-1.54c2.52 0 8.38-.2 10.52.27.94.21 1.16.49 1.93.81 4.41 1.86.88 1.66 7.93 1.66v13.71c-6.43 0-3.39-.41-8.96 2.17-.65.3-1.11.39-2 .39V62.87c.84.19 1.36.68 2.4.68h3.08v-2.74c-2.25 0-5.12.28-5.82-2.74h-7.88v5.31zm-5.48-7.19v1.88c-.75 0-2.74.15-2.74-1.37 0-.48.51-1.03.84-1.21.49-.25 1.32-.16 2.07-.16-.09.39-.17.4-.17.86zM49.42 34.78c0-3.25 1.27-7.53 3.23-10.14 2-2.65 3-3.55 5.82-5.31a8.11 8.11 0 0 1 1.47-.75c4.09-1.67 6.92-1.97 11.25-1.12 1.27.25 2.22.66 3.34 1.12 3.01 1.22 5.39 3.53 7.3 6.06l1.61 2.84c2.08 5.12 2.26 11.24-.75 16.07-.31.49-.52.91-.86 1.36-.85 1.12-2.06 2.66-3.18 3.5l-2.64 1.82c-2.25 1.4-6.08 2.36-8.77 2.36s-6.53-.96-8.77-2.36c-1.65-1.03-3.68-2.47-4.87-4.04l-1.81-2.64c-1.4-2.25-2.37-6.08-2.37-8.77zm-2.74-.86c0 2.77.1 4.97 1.05 7.52 1.53 4.08 2.76 5.61 5.5 8.37 1.22 1.22 2.52 2.13 4.07 2.95-.7.97-2.4.96-2.4 4.29 0 1.25.86 1.96.86 2.39 0 .67-.86.57-.86 3.09 0 1.25.86 1.96.86 2.39 0 .62-1.35 1.26-.68 4.11H10.54c-1.06 0-2.2.05-3.26.01-.99-.03-1.7-.57-1.7-1.55V16.97l51.03.16c-.03.02-.16.12-.2.15-.18.13-.32.21-.51.34-.42.27-.63.45-1 .72-.9.67-2.86 2.43-3.52 3.32-2.2 2.94-2.9 4.11-4.03 7.79-.14.45-.24.82-.32 1.39-.16 1.02-.35 1.88-.35 3.08zM5.58 7.55A1.55 1.55 0 0 1 7.12 6h65.43c1.89 0 1.54 2.09 1.54 3.94v5.48c-1.26-.6-4.11-1.19-6-1.19H5.58V7.55zm-2.74-.52v60.98c0 1.79 1.59 3.36 3.14 3.7 1 .23 46.91.07 49.1.07-.75 3.22 1.32 5.48 3.59 5.48h1.72v4.62c0 3.16 3.17 6.34 6.33 6.34h1.03c3.16 0 6.34-3.18 6.34-6.34v-4.62c1.39 0 3.04-.61 4.05-1.09 4.76-2.26 2.3-1.65 9.65-1.65V55.33H81.8c-.44 0-4.36-1.9-4.97-2.22.3-.41 1.17-.75 2.06-1.37l2.01-1.59c1.27-1.27 2.29-2.21 3.29-3.72 4.76-7.18 4.92-15.94.14-23.09-1.21-1.82-1.64-2.13-3.26-3.76-.72-.73-3.26-2.69-4.24-2.96V8.06c0-1.78-.13-2.29-.92-3.36-.48-.65-1.78-1.44-2.85-1.44H6.6c-1.88 0-3.76 1.89-3.76 3.77zM54.9 34.78c0-.71.22-2.08.36-2.73.82-3.88 3.49-6.76 6.95-8.47 3.64-1.79 8.8-1.34 12.02 1.12 4.19 3.19 6.09 7.6 4.99 12.81-.15.69-.48 1.67-.79 2.3-2.71 5.47-8.01 8.2-13.92 6.95-.69-.15-1.67-.48-2.3-.79-4.44-2.19-7.31-6.34-7.31-11.19zm-2.74-.86c0 4.76 1.06 8.17 4.42 11.52 2.38 2.39 6.07 4.41 9.8 4.41 2.95 0 4.65-.08 7.31-1.43 4.81-2.43 8.62-7.38 8.62-12.79 0-4.75-1.06-8.16-4.41-11.51-2.39-2.39-6.07-4.41-9.81-4.41-4.75 0-8.16 1.05-11.51 4.41-2.39 2.38-4.42 6.07-4.42 9.8zm-41.1-11.47h8.22v8.22h-8.22v-8.22zM8.32 33.41h13.7v-13.7H8.32v13.7zm2.74 5.48h8.22v8.22h-8.22v-8.22zM8.32 49.85h13.7v-13.7H8.32v13.7zm2.74 5.48h8.22v8.22h-8.22v-8.22zM8.32 66.29h13.7v-13.7H8.32v13.7zm54.85-28.04l-1.89-1.8-1.88 1.97 3.69 3.77L75.16 30.2l-2.06-1.97z"/><use href="#B"/><use href="#B" y="27.4"/><use href="#B" y="10.96"/><use href="#B" y="16.44"/><use href="#C"/><use href="#C" y="16.44"/><use href="#C" x="5.48" y="38.36"/><use href="#C" x="5.48" y="27.4"/><use href="#C" x="5.48" y="32.88"/><path d="M41.2 27.93h2.74v-2.74H41.2zm0 16.44h2.74v-2.74H41.2z"/><use href="#D"/><path d="M19.28 11.49h2.74V8.74h-2.74z"/><use href="#D" y="-10.96"/><use href="#D" y="-5.48"/><path d="M8.32 11.49h2.74V8.74H8.32zm5.48 0h2.74V8.74H13.8z"/><defs ><path id="B" d="M24.76 22.45h19.18v-2.74H24.76z"/><path id="C" d="M24.76 27.93h13.7v-2.74h-13.7z"/><path id="D" d="M24.76 66.29h2.74v-2.74h-2.74z"/></defs></svg>