<svg xmlns="http://www.w3.org/2000/svg" viewBox="0 0 90 90"  width="90" height="90" shape-rendering="geometricPrecision" image-rendering="optimizeQuality" fill-rule="evenodd" xmlns:v="https://vecta.io/nano"><path d="M31.13 78.76h27.95c.79 0 .48 1.66.48 2.41v3.05c-1.78.42-24.34.16-28.11.16-.43 0-.44-.08-.8-.16l-.02-4.35c0-.6-.12-1.11.5-1.11zm6.75-8.2h14.45v5.47H37.88v-5.47zM7.84 64.78v-1.77h74.53v1.77c0 1.86-1.78 3.21-3.69 3.21H11.53c-1.91 0-3.69-1.35-3.69-3.21zm5.46-34.86c0 .92 1.45 2.6 2.12 3.34.5.54.84.73 1.37 1.2 2.64 2.38 2.74-.43 4.54-.84 1.58 2.99-1.92 4.17 5.46 4.17 1.05 0 2.39-.37 2.86-1 .81-1.07-.21-1.62.84-3.17 2.72.22 1.21 4.59 6.71-.85 3.58-3.55.36-3.31-.13-5.42 1.97-2.26 4.18 2.31 4.18-5.3H78.2c2.21 0 4.17 1.23 4.17 3.37v35.02H7.84V25.42c0-2.79 3.03-3.21 3.37-3.37 0 4.96.71 4.08 3.85 4.82-.03 1.78-1.76 1.68-1.76 3.05zm5.62-17.51c.5 0 .36.34 1.28.81 2.89 1.51 4.99-.83 4.99-3.54 5.42 0 2.28-.16 3.88 2.54.84 1.43 1.68 1.48 2.86 1.48 1.34 0 1.8-.77 2.57-1.29.68.45 1.63 1.56 2.09 2.25-.23.84-2.79 3.22-.04 5.51 1.25 1.04 2.61.5 2.61 1.08 0 1.26-.16 1.82-.16 3.05-2.17 0-4.02 1.12-4.02 3.21 0 1.29.76 2.27 1.29 3.05-.38.57-1.71 1.9-2.41 2.09-1.86-1.24-1.31-1.28-3.53-1.28-.89 0-1.66.88-2.03 1.5-1.44 2.42.66 2.35-3.11 2.35-.44 0-.45-.07-.81-.16-.03-1.58-1.1-4.01-2.57-4.01-2.11 0-1.81.24-3.37 1.28-.68-.45-1.63-1.56-2.09-2.25.18-.66 2.92-3.51-.06-5.56-2.53-1.73-2.51 1.13-2.51-3.6 0-.91.82-.08 2.52-1 1.47-.8 1.49-1.67 1.49-2.85 0-1.26-.69-1.89-1.28-2.57.28-.42 1.86-2.09 2.41-2.09zm3.05-1.28c-2.61-.22-1.2-3.5-4.84-.83-.88.64-3.67 3.14-3.67 4.36 0 .84.48.9.93 1.32.51.49.54.8.83 1.41-2.24 1.5-3.1-.46-3.69 2.09-4.14 0-6.43 3.11-6.43 7.55v35.98c0 2.27.42 4.18 1.57 5.35 1.17 1.2 2.38 2.2 4.7 2.2h23.77v5.47c-7.22 0-7.22.24-7.22 7.07 0 2.34 1.21 3.85 3.53 3.85h27.31c4.12 0 3.53-4.07 3.53-6.91 0-4.64-3.6-4.01-7.22-4.01v-5.47h23.77c2.32 0 3.53-1 4.71-2.2 1.14-1.17 1.56-3.08 1.56-5.35V27.03c0-3.99-1.46-6.66-5.42-7.44-2.3-.45-9.72-.11-12.74-.11H41.09c-.47-2.03-1.54-.55-3.53-1.61.67-2.9 4.63-1.25-1.33-7.19-3.04-3.03-3.19.45-4.62.45-1.57 0 .34-3.2-1.72-3.75-1.34-.35-2.94-.27-4.38-.27-4.31 0-2.26 1.6-3.54 4.02zm53.02 43.69H49.28c-1.16 0-2.09-.64-2.09-1.77V36.99h30.04v15.58c0 1.41-.84 2.25-2.24 2.25zm-27.8-24.58c0-.8.8-1.6 1.61-1.6h26.67c2.31 0 1.76 3.33 1.76 5.78H47.19v-4.18zm-2.57-.32v23.62c0 1.06.75 2.15 1.32 2.69.65.62 1.81 1.16 3.02 1.16h26.19c2.54 0 4.65-1.97 4.65-4.5V30.4c0-1.25-.46-2.24-1.08-2.93-.59-.66-1.59-1.4-2.77-1.4H48.48c-1.94 0-3.86 1.91-3.86 3.85zM13.46 52.09c0-1.49 1.21-2.89 2.73-2.89h20.4c1.08 0 2.41 1.33 2.41 2.41v.8c0 1.26-1.57 2.41-2.89 2.41h-19.6c-1.79 0-3.05-1.72-3.05-2.73zm-2.57-.32c0 1.14.31 2.4.94 3.24.66.9 1.19 1.42 2.27 1.9.63.29 1.48.48 2.41.48h19.6c3.12 0 5.25-2.15 5.54-5.07.28-2.9-2.32-5.69-4.74-5.69h-21.2c-2.46 0-4.82 2.74-4.82 5.14zm16.06-23.45c-1.83 0-3.25-.11-4.78-1.65-3.32-3.31-1.54-9.92 4.3-9.92 4.49 0 7.62 5.66 4.14 9.76-.62.71-2.4 1.81-3.66 1.81zm-8.99-6.27c0 2.04.2 3.68 1.51 5.4.9 1.18 1.59 1.86 3.03 2.58 3.39 1.7 7.17.94 9.79-1.67 4.91-4.88 1.95-14.18-6.3-14.18-4.11 0-8.03 3.76-8.03 7.87zm30.84 9.48c0 .78.51 1.28 1.28 1.28h13.5c1.77 0 1.68-2.57 0-2.57h-13.5c-.77 0-1.28.51-1.28 1.29zM16.83 51.61c0 .77-.05 1.6 1.13 1.6H29.2c.42 0 .71-.12.93-.35.69-.77.34-2.22-1.09-2.22H18.12c-.59 0-1.29.45-1.29.97zm42.73-1.29c0 .49-.05.74.32 1.13.51.54 1.91.82 2.51-1.67l.74-2.96c.64-2.58 2.62-7.26.29-7.26-1.51 0-1.78 2.63-2.34 4.89l-1.52 5.87zm8.84-4.66c-.53.8-3.05 2.69-3.05 3.54 0 .63.52 1.28 1.28 1.28 1.06 0 4.98-4.43 4.98-4.65 0-1.33-1.45-2.07-2.21-2.77-.55-.51-2.04-2.38-2.77-2.38-.6 0-2.4.79-.6 2.54.66.64 1.91 1.76 2.37 2.44zm-15.75-.16c0 .99 4.32 4.98 4.66 4.98 1.29 0 2.3-1.04.77-2.53-.65-.63-1.76-1.61-2.21-2.29.8-1.19 3.05-2.44 3.05-3.69 0-.62-.68-2.34-2.61-.36l-1.37 1.2c-.48.45-2.29 2.06-2.29 2.69zM41.89 65.58c0 1.77 2.84 1.29 4.98 1.29 1.83 0 1.93-2.57.16-2.57-2.65 0-5.14-.55-5.14 1.28zm29.56-34.05a1.92 1.92 0 0 0 .36.92c.38.42 3.66 1.02 3.66-.92s-3.28-1.34-3.66-.93a2 2 0 0 0-.36.93zm-5.3 0c0 1.89 3.86 1.64 3.86.32 0-1.73-.7-1.61-2.58-1.61-.77 0-1.28.51-1.28 1.29z"/></svg>