<?xml version="1.0" encoding="utf-8"?>
<!-- Generator: Adobe Illustrator 25.2.3, SVG Export Plug-In . SVG Version: 6.00 Build 0)  -->
<svg version="1.1" id="Warstwa_1" xmlns="http://www.w3.org/2000/svg" xmlns:xlink="http://www.w3.org/1999/xlink" x="0px" y="0px"
	 viewBox="0 0 1000 317" style="enable-background:new 0 0 1000 317;" xml:space="preserve">
<style type="text/css">
	.st0{fill:#0A85FF;}
	.st1{fill-rule:evenodd;clip-rule:evenodd;fill:#152A94;}
	.st2{fill:#152A94;}
	.st3{clip-path:url(#SVGID_2_);fill:url(#SVGID_3_);}
	.st4{fill:#4AA8FF;}
</style>
<g>
	<g>
		<path class="st0" d="M465.9,286c-12.1,0-21.8-3.8-29.3-11.4c-7.5-7.6-11.2-17.7-11.2-30.3v-2.3c0-8.5,1.6-16,4.9-22.7
			c3.3-6.7,7.8-11.8,13.7-15.5c5.9-3.7,12.5-5.6,19.7-5.6c11.5,0,20.4,3.7,26.7,11c6.3,7.4,9.4,17.8,9.4,31.2v7.7h-55.3
			c0.6,7,2.9,12.5,7,16.6c4.1,4.1,9.2,6.1,15.5,6.1c8.7,0,15.8-3.5,21.3-10.6l10.3,9.8c-3.4,5.1-7.9,9-13.6,11.8
			C479.3,284.6,473,286,465.9,286z M463.6,213.5c-5.2,0-9.4,1.8-12.6,5.5c-3.2,3.7-5.3,8.7-6.1,15.3h36.2v-1.4
			c-0.4-6.4-2.1-11.2-5.1-14.4C473,215.1,468.9,213.5,463.6,213.5z"/>
		<path class="st0" d="M550.9,243.7h-41.1v-15.3h41.1V243.7z"/>
		<path class="st0" d="M627.2,255.1c0-5-1.8-8.9-5.3-11.6c-3.5-2.7-9.9-5.5-19.1-8.2c-9.2-2.8-16.5-5.8-21.9-9.2
			c-10.4-6.5-15.6-15-15.6-25.5c0-9.2,3.7-16.7,11.2-22.7c7.5-5.9,17.2-8.9,29.1-8.9c7.9,0,15,1.5,21.2,4.4
			c6.2,2.9,11.1,7.1,14.6,12.5c3.5,5.4,5.3,11.4,5.3,18h-19.7c0-5.9-1.9-10.5-5.6-13.9c-3.7-3.3-9.1-5-16-5
			c-6.5,0-11.5,1.4-15.1,4.1c-3.6,2.8-5.4,6.6-5.4,11.5c0,4.2,1.9,7.6,5.8,10.4c3.9,2.8,10.2,5.5,19.1,8.1c8.9,2.6,16,5.6,21.4,9
			c5.4,3.4,9.3,7.2,11.8,11.6c2.5,4.4,3.8,9.5,3.8,15.3c0,9.5-3.6,17-10.9,22.7c-7.3,5.6-17.2,8.4-29.6,8.4
			c-8.2,0-15.8-1.5-22.7-4.6c-6.9-3.1-12.3-7.3-16.1-12.6c-3.8-5.4-5.8-11.6-5.8-18.8h19.8c0,6.5,2.1,11.5,6.4,15s10.4,5.3,18.4,5.3
			c6.9,0,12.1-1.4,15.5-4.2C625.4,263.4,627.2,259.7,627.2,255.1z"/>
		<path class="st0" d="M689.2,248.1l-8.5,8.7v27.6h-19V164.2h19v69.3l5.9-7.4l23.4-26.4h22.8l-31.5,35.3l34.8,49.4h-22L689.2,248.1z
			"/>
		<path class="st0" d="M764.9,284.4h-19V164.2h19V284.4z"/>
		<path class="st0" d="M822.1,286c-12.1,0-21.8-3.8-29.3-11.4c-7.5-7.6-11.2-17.7-11.2-30.3v-2.3c0-8.5,1.6-16,4.9-22.7
			c3.3-6.7,7.8-11.8,13.7-15.5c5.9-3.7,12.5-5.6,19.7-5.6c11.5,0,20.4,3.7,26.7,11c6.3,7.4,9.4,17.8,9.4,31.2v7.7h-55.3
			c0.6,7,2.9,12.5,7,16.6c4.1,4.1,9.2,6.1,15.5,6.1c8.7,0,15.8-3.5,21.3-10.6l10.3,9.8c-3.4,5.1-7.9,9-13.6,11.8
			C835.5,284.6,829.2,286,822.1,286z M819.8,213.5c-5.2,0-9.4,1.8-12.6,5.5c-3.2,3.7-5.3,8.7-6.1,15.3h36.2v-1.4
			c-0.4-6.4-2.1-11.2-5.1-14.4C829.2,215.1,825.1,213.5,819.8,213.5z"/>
		<path class="st0" d="M944.3,243c0,13.1-3,23.5-8.9,31.3c-5.9,7.8-13.9,11.7-23.9,11.7c-9.3,0-16.7-3.1-22.3-9.2V317h-19V199.8
			h17.5l0.8,8.6c5.6-6.8,13.2-10.2,22.8-10.2c10.3,0,18.4,3.8,24.3,11.5c5.9,7.7,8.8,18.4,8.8,32V243z M925.4,241.3
			c0-8.5-1.7-15.2-5-20.1c-3.4-5-8.2-7.4-14.4-7.4c-7.8,0-13.4,3.2-16.7,9.6V261c3.4,6.6,9.1,9.9,16.9,9.9c6.1,0,10.8-2.4,14.2-7.3
			C923.7,258.6,925.4,251.2,925.4,241.3z"/>
	</g>
	<path class="st1" d="M548.1,26.8c-24.3,0-44,19.7-44,44c0,24.3,19.7,44,44,44c24.3,0,44-19.7,44-44
		C592.1,46.5,572.4,26.8,548.1,26.8 M548.1,97.2c-14.6,0-26.4-11.8-26.4-26.4s11.8-26.4,26.4-26.4c14.6,0,26.4,11.8,26.4,26.4
		S562.7,97.2,548.1,97.2"/>
	<path class="st2" d="M673,113.5h8.4c2.6,0,4.6-2.3,4.2-4.9l-10.8-76.9c-0.3-2.1-2.1-3.7-4.2-3.7h-9.7c-1.9,0-3.5,1.2-4.1,3
		l-13.6,41.8L629.6,31c-0.6-1.8-2.2-3-4.1-3h-9.8c-2.1,0-3.9,1.6-4.2,3.7l-10.8,76.9c-0.4,2.6,1.6,4.9,4.2,4.9h8.4
		c2.1,0,3.9-1.6,4.2-3.7l6-42.6l10.7,32.9l2.9,9c1.9,5.8,10,5.8,11.9,0l2.9-9l10.7-32.9l6,42.6C669,112,670.8,113.5,673,113.5"/>
	<path class="st2" d="M719.4,31l-25,76.9c-0.9,2.8,1.2,5.6,4.1,5.6h8.8c1.8,0,3.5-1.2,4.1-2.9l6-18.4h26.6l6,18.4
		c0.6,1.8,2.2,2.9,4.1,2.9h8.8c2.9,0,5-2.8,4.1-5.6l-25-76.9c-0.6-1.8-2.2-2.9-4.1-2.9h-14.2C721.6,28.1,720,29.3,719.4,31
		 M722.8,75.1l7.7-23.8l7.7,23.8H722.8z"/>
	<path class="st2" d="M953,109.3V79.3h29.9v29.9c0,2.4,1.9,4.3,4.3,4.3h8.5c2.4,0,4.3-1.9,4.3-4.3V32.3c0-2.4-1.9-4.3-4.3-4.3h-8.5
		c-2.4,0-4.3,1.9-4.3,4.3v29.9H953V32.3c0-2.4-1.9-4.3-4.3-4.3h-8.5c-2.4,0-4.3,1.9-4.3,4.3v76.9c0,2.4,1.9,4.3,4.3,4.3h8.5
		C951.1,113.5,953,111.6,953,109.3"/>
	<path class="st1" d="M486.6,92c-5.3,3.9-12,5.9-19.2,5c-11.9-1.5-21.4-11.3-22.7-23.2c-1.8-15.9,10.7-29.4,26.2-29.4
		c5.9,0,11.3,1.9,15.7,5.2c1.7,1.3,4.1,1.1,5.7-0.5l6.3-6.3c1.9-1.9,1.7-4.9-0.4-6.6c-7.9-6.2-17.9-9.9-28.9-9.5
		c-22.4,0.8-41,18.8-42.4,41.2c-1.6,25.6,18.7,46.8,43.9,46.8c10.3,0,19.8-3.5,27.3-9.5c2.1-1.6,2.3-4.7,0.4-6.6l-6.3-6.3
		C490.7,90.9,488.3,90.7,486.6,92"/>
	<path class="st1" d="M909.8,92c-5.3,3.9-12,5.9-19.2,5c-11.9-1.5-21.4-11.3-22.7-23.2c-1.8-15.9,10.7-29.4,26.2-29.4
		c5.9,0,11.3,1.9,15.7,5.2c1.7,1.3,4.1,1.1,5.7-0.5l6.3-6.3c1.9-1.9,1.7-4.9-0.4-6.6c-7.9-6.2-17.9-9.9-28.9-9.5
		c-22.4,0.8-41,18.8-42.4,41.2c-1.6,25.6,18.7,46.8,43.9,46.8c10.3,0,19.8-3.5,27.3-9.5c2.1-1.6,2.3-4.7,0.4-6.6l-6.3-6.3
		C914,90.9,911.6,90.7,909.8,92"/>
	<path class="st2" d="M822.5,81.7c10.4-4.1,17.7-14.3,17.6-26.2c-0.2-15.3-13.2-27.4-28.5-27.4h-27.1c-2.4,0-4.3,1.9-4.3,4.3v76.9
		c0,2.4,1.9,4.3,4.3,4.3h8.5c2.4,0,4.3-1.9,4.3-4.3V83.6h5.7l20.5,28.1c0.8,1.1,2.1,1.8,3.5,1.8h10.3c3.5,0,5.5-4,3.5-6.8
		L822.5,81.7z M812.3,66.5h-15V45.2h15c5.9,0,10.7,4.8,10.7,10.7S818.2,66.5,812.3,66.5"/>
	<path class="st2" d="M280.9,0.2L39.1,0C21.1,0,0,16.6,0,35.7c-0.2,16.3,5.7,23.5,18.1,33.8c6.1,5.1,7.5,12,7.5,16.1
		c0.2,36.4,0.2,148.9,0.2,148.9l59.6-26.2l132.8,0.4c35.9,0,66.8-27.4,73.8-65l19.7-104.2C315.5,19.6,300,0.2,280.9,0.2 M238.7,80.5
		l-8.1,45.3c-1.6,9.6-9.9,16.6-19.7,16.6l-120.1,2V93.2c0-15.4,12.5-27.8,27.8-27.8L227,66.5C234.4,66.5,240,73.2,238.7,80.5"/>
	<g>
		<defs>
			<path id="SVGID_1_" d="M25.8,234.8c0,38.9,39.1,77.9,77.9,77.9H130c0,0-42.1-60.6-39.1-84.6c0.6-4.9,0-19.7,26-19.7
				c29.3-0.1,104.2,0.4,104.2,0.4c18.1,0,35.6-14.4,35.6-33.6c0-17.3-11.8-32.8-33.2-32.8l-118.2-0.2
				C66.1,143.6,25.8,179,25.8,234.8"/>
		</defs>
		<clipPath id="SVGID_2_">
			<use xlink:href="#SVGID_1_"  style="overflow:visible;"/>
		</clipPath>
		
			<linearGradient id="SVGID_3_" gradientUnits="userSpaceOnUse" x1="-206.554" y1="559.8481" x2="-201.7885" y2="559.8481" gradientTransform="matrix(48.4571 0 0 -48.4571 10034.8486 27356.0645)">
			<stop  offset="0" style="stop-color:#0A84FF"/>
			<stop  offset="1" style="stop-color:#152A93"/>
		</linearGradient>
		<rect x="25.8" y="142.2" class="st3" width="230.9" height="170.5"/>
	</g>
	<path class="st4" d="M215.2,247.6L215.2,247.6H118h-0.2c-15-0.2-22.2-5.3-24.7-11.4c-6-14.7,3.9-22.6,3.9-22.6s-32.1,10.5-32.1,47
		c0,39.1,38.9,52.1,52.1,52.1h97.9h0.1h0.1c18,0,32.5-14.6,32.5-32.6C247.6,262.2,233.1,247.7,215.2,247.6"/>
</g>
</svg>
