<?xml version="1.0" encoding="UTF-8"?>
<!DOCTYPE svg  PUBLIC '-//W3C//DTD SVG 1.1//EN'  'http://www.w3.org/Graphics/SVG/1.1/DTD/svg11.dtd'>
<svg clip-rule="evenodd" fill-rule="evenodd" image-rendering="optimizeQuality" shape-rendering="geometricPrecision" text-rendering="geometricPrecision" version="1.1" viewBox="0 0 900 300" xml:space="preserve" xmlns="http://www.w3.org/2000/svg">
 <defs>
  <style type="text/css">
   <![CDATA[
    .fil4 {fill:#806BFA;fill-rule:nonzero}
    .fil3 {fill:#8A76FA;fill-rule:nonzero}
    .fil2 {fill:#BF95FC;fill-rule:nonzero}
    .fil1 {fill:#E97DFA;fill-rule:nonzero}
    .fil0 {fill:#ED91FC;fill-rule:nonzero}
    .fil5 {fill:white;fill-rule:nonzero}
   ]]>
  </style>
 </defs>
 
  
  
   <path class="fil0" d="m262.36 144.24c0-3.26 2.65-5.91 5.91-5.91s5.9 2.65 5.9 5.91c0 35.17-14.25 67.01-37.3 90.06-23.05 23.04-54.89 37.3-90.06 37.3-35.16 0-67.01-14.26-90.05-37.3-23.05-23.05-37.3-54.89-37.3-90.06s14.25-67.01 37.3-90.06c23.04-23.04 54.89-37.3 90.05-37.3 3.27 0 5.91 2.65 5.91 5.91s-2.64 5.9-5.91 5.9c-31.9 0-60.79 12.94-81.7 33.85s-33.84 49.79-33.84 81.7 12.93 60.8 33.84 81.7c20.91 20.91 49.8 33.85 81.7 33.85 31.91 0 60.8-12.94 81.71-33.85 20.91-20.9 33.84-49.79 33.84-81.7z"/>
   <path class="fil1" d="m232.2 102.11c-1.44-2.92-0.24-6.45 2.68-7.89s6.45-0.24 7.89 2.68c3.59 7.25 6.37 14.96 8.24 23 1.83 7.84 2.8 15.99 2.8 24.34 0 29.54-11.98 56.29-31.34 75.65-19.36 19.37-46.11 31.34-75.66 31.34-29.54 0-56.29-11.97-75.65-31.34-19.36-19.36-31.34-46.11-31.34-75.65 0-15.55 3.34-30.36 9.35-43.74 6.24-13.91 15.33-26.22 26.53-36.19 2.43-2.16 6.16-1.95 8.33 0.49 2.16 2.43 1.95 6.16-0.49 8.33-9.99 8.89-18.09 19.84-23.62 32.16-5.32 11.86-8.28 25.04-8.28 38.95 0 26.28 10.65 50.08 27.87 67.3 17.23 17.22 41.02 27.88 67.3 27.88 26.29 0 50.08-10.66 67.31-27.88 17.22-17.22 27.87-41.02 27.87-67.3 0-7.48-0.85-14.73-2.47-21.67-1.67-7.18-4.14-14.04-7.32-20.46z"/>
   <path class="fil2" d="m162.91 71.18c-3.18-0.7-5.2-3.85-4.5-7.04 0.7-3.18 3.85-5.2 7.04-4.5 23.34 5.14 42.4 19.28 54.34 37.98 11.94 18.68 16.76 41.91 11.62 65.25s-19.28 42.4-37.97 54.35c-18.69 11.94-41.92 16.76-65.26 11.62s-42.4-19.28-54.34-37.98c-11.94-18.68-16.76-41.91-11.62-65.25 0.7-3.19 3.85-5.2 7.04-4.5 3.18 0.7 5.19 3.85 4.49 7.04-4.45 20.19-0.29 40.27 10.01 56.39 10.29 16.12 26.76 28.31 46.96 32.76s40.27 0.3 56.4-10c16.11-10.3 28.31-26.77 32.76-46.96 4.44-20.2 0.29-40.28-10.01-56.4s-26.76-28.31-46.96-32.76z"/>
   <path class="fil3" d="m127.94 92.87c-3.05 1.1-6.42-0.49-7.52-3.55-1.09-3.06 0.5-6.43 3.56-7.52 9.38-3.36 19.45-4.6 29.41-3.54 9.54 1.02 19.01 4.13 27.7 9.49l0.46 0.29c15.41 9.67 25.47 24.64 29.3 41.06 3.83 16.43 1.42 34.32-8.12 49.8l-0.3 0.48c-9.66 15.4-24.64 25.46-41.06 29.29-16.52 3.85-34.51 1.4-50.04-8.26-2.77-1.73-3.62-5.37-1.89-8.13 1.72-2.77 5.36-3.62 8.13-1.9 12.76 7.94 27.54 9.96 41.1 6.8 13.57-3.16 25.93-11.5 33.87-24.25l0.02-0.02c7.94-12.77 9.96-27.55 6.8-41.11-3.17-13.56-11.5-25.93-24.25-33.87l-0.03-0.02c-7.2-4.48-15.04-7.08-22.93-7.91-8.24-0.88-16.52 0.13-24.21 2.87z"/>
   <path class="fil4" d="m108.49 170.28c-5.95 0-10.03-0.04-12.2-0.14l-1.42 3.37c-0.43 0.93-0.81 1.93-1.18 2.98-0.75 2.02-1.78 3.02-3.12 3.02-0.61 0-1.13-0.18-1.51-0.58-0.39-0.39-0.59-0.8-0.59-1.22 0-0.72 0.3-1.52 0.92-2.4 0.98-1.37 1.95-3.15 2.88-5.37-2.8-0.26-4.2-1.06-4.2-2.43s0.8-2.07 2.4-2.07c0.99 0 2.12 0.17 3.42 0.5l24.37-59.18 33.4 72.22h-25.44l-4.06-8.7h-13.67zm-10.65-3.95c3.13 0.26 5.93 0.4 8.4 0.4h14.32l-12.22-26.34-10.5 25.94zm37.38 11.79c-1.29-0.73-2.4-1.5-3.34-2.31-0.93-0.81-1.4-1.68-1.4-2.6 0-1.75 0.76-2.63 2.26-2.63 0.98 0 2.09 0.54 3.31 1.65 1.21 1.09 2.56 2.05 4.06 2.88 1.51 0.83 3.15 1.54 4.91 2.13 3.63 1.22 7 1.82 10.09 1.82 3.08 0 5.47-0.21 7.14-0.6 1.66-0.42 3.07-0.96 4.22-1.66 2.42-1.5 3.63-3.44 3.63-5.79 0-2.16-1.06-4.35-3.14-6.56-1.77-1.87-4.27-4.11-7.49-6.72l-9.42-7.39c-9.45-7.26-15.01-13.92-16.71-19.94-0.58-2.09-0.88-4.42-0.88-7 0-2.57 0.58-5.11 1.73-7.6 1.17-2.5 2.88-4.68 5.15-6.56 4.89-4.08 11.55-6.11 19.96-6.11 4.29 0 8.15 0.62 11.57 1.9 3.42 1.26 5.75 2.38 7 3.38 1.26 1 1.88 1.9 1.88 2.71 0 1.67-0.7 2.52-2.11 2.52-0.81 0-1.66-0.39-2.58-1.2s-1.93-1.53-3.06-2.13c-1.11-0.6-2.39-1.15-3.82-1.62-3.11-1.03-6.13-1.54-9.11-1.54-5.47 0-8.2 1.79-8.2 5.4 0 1.5 0.49 2.9 1.49 4.18 1.75 2.25 5.21 5.45 10.33 9.63 5.11 4.15 9.23 7.8 12.34 10.92 3.1 3.13 5.47 5.95 7.09 8.43 2.55 3.93 3.85 8.03 3.85 12.27 0 4.25-0.75 7.84-2.24 10.79-1.48 2.97-3.57 5.51-6.24 7.64-5.66 4.49-12.68 6.73-21.05 6.73-8.39 0-15.46-1.67-21.22-5.02z"/>
   
    <path class="fil5" d="m349.09 246.52c-6.1 0-12.03-0.42-17.78-1.26-5.76-0.83-11.09-2.09-16.01-3.76s-9.25-3.74-12.99-6.2l7.53-18.29c3.84 2.26 7.87 4.15 12.1 5.68 4.23 1.52 8.65 2.63 13.28 3.32 4.62 0.69 9.44 1.03 14.46 1.03 7.47 0 13.13-1.01 16.96-3.02 3.84-2.02 5.76-4.95 5.76-8.78 0-2.26-0.59-4.06-1.77-5.39-1.18-1.32-2.98-2.38-5.39-3.17s-5.38-1.47-8.93-2.06l-20.5-3.1c-10.63-1.67-18.47-5.02-23.54-10.04-5.06-5.01-7.59-11.5-7.59-19.47 0-6.69 1.96-12.47 5.9-17.34 3.93-4.87 9.42-8.6 16.45-11.21s15.12-3.91 24.27-3.91c5.51 0 10.79 0.44 15.86 1.33 5.06 0.88 9.71 2.19 13.94 3.91s7.92 3.86 11.07 6.42l-7.53 17.7c-4.72-3.44-9.86-5.95-15.42-7.52-5.55-1.58-11.73-2.36-18.51-2.36-4.62 0-8.63 0.46-12.03 1.4-3.39 0.93-5.97 2.28-7.74 4.05s-2.66 3.94-2.66 6.5c0 3.24 1.21 5.68 3.62 7.3s6.37 2.88 11.87 3.76l19.77 3.25c10.73 1.77 18.79 5.01 24.2 9.74 5.41 4.72 8.12 11.06 8.12 19.03 0 6.49-1.9 12.19-5.68 17.11-3.79 4.92-9.2 8.71-16.23 11.36-7.04 2.66-15.32 3.99-24.86 3.99zm61.08-1.48v-15.34l45.59-54.3 0.29 6.49h-45.59v-17.41h66.98v14.91l-46.03 54.29-0.15-6.05h47.95v17.41h-69.04zm93.54 26.56 15.05-33.05v11.06l-36.45-85.13h24.79l22.28 57.99h-2.21l22.27-57.99h23.46l-45.29 107.12h-23.9zm109.62-25.08c-5.02 0-9.79-0.35-14.31-1.04-4.53-0.68-8.63-1.67-12.32-2.95s-6.81-2.85-9.37-4.72l6.05-15.19c2.75 1.77 5.83 3.24 9.22 4.42s6.88 2.04 10.47 2.58c3.6 0.54 7.01 0.81 10.26 0.81 4.92 0 8.73-0.71 11.43-2.13 2.71-1.43 4.06-3.62 4.06-6.57 0-2.16-0.76-3.86-2.29-5.09-1.52-1.23-4.05-2.14-7.59-2.73l-17.12-2.51c-7.67-1.28-13.4-3.96-17.19-8.04-3.78-4.08-5.68-8.93-5.68-14.53 0-4.72 1.35-9.05 4.06-12.98 2.7-3.94 6.76-7.09 12.17-9.45s12.25-3.54 20.51-3.54c4.62 0 8.93 0.35 12.91 1.03 3.98 0.69 7.62 1.7 10.92 3.03 3.29 1.33 6.02 2.93 8.19 4.79l-6.79 14.61c-2.46-1.67-5.09-3.05-7.89-4.13-2.81-1.08-5.71-1.87-8.71-2.36s-6.07-0.74-9.22-0.74c-5.31 0-9.22 0.79-11.73 2.36-2.51 1.58-3.76 3.79-3.76 6.64 0 2.16 0.74 3.86 2.21 5.09 1.48 1.23 3.89 2.09 7.23 2.58l16.82 2.66c7.97 1.28 13.89 3.79 17.78 7.52 3.88 3.74 5.83 8.81 5.83 15.2 0 5.21-1.5 9.74-4.5 13.57-3 3.84-7.21 6.77-12.62 8.78-5.41 2.02-11.75 3.03-19.03 3.03zm49.57-1.48v-15.34l45.59-54.3 0.3 6.49h-45.59v-17.41h66.98v14.91l-46.03 54.29-0.15-6.05h47.95v17.41h-69.05zm114.49 1.48c-9.64 0-16.87-2.39-21.68-7.16-4.82-4.77-7.23-11.78-7.23-21.02v-77.31h23.01v75.83c0 2.46 0.44 4.55 1.33 6.27 0.88 1.72 2.16 3.05 3.84 3.99 1.67 0.93 3.73 1.4 6.19 1.4 1.38 0 2.73-0.08 4.06-0.22 1.33-0.15 2.58-0.37 3.76-0.67l0.59 16.97c-2.16 0.69-4.33 1.18-6.49 1.47-2.16 0.3-4.62 0.45-7.38 0.45zm-37.91-36-8.86-15.05 52.97-32.31 8.85 15.05-52.96 32.31zm102.24 36c-8.75 0-16.3-1.68-22.65-5.02-6.34-3.34-11.21-8.14-14.6-14.38-3.4-6.25-5.14-13.7-5.24-22.36 0-8.75 1.72-16.25 5.16-22.5 3.45-6.24 8.31-11.01 14.61-14.31 6.3-3.29 13.87-4.94 22.72-4.94 8.95 0 16.6 1.65 22.94 4.94 6.35 3.3 11.22 8.09 14.61 14.39 3.39 6.29 5.09 13.77 5.09 22.42 0 8.66-1.72 16.11-5.16 22.36-3.45 6.24-8.32 11.04-14.61 14.38-6.3 3.34-13.92 5.02-22.87 5.02zm0.15-17.56c6.29-0.2 11.16-2.34 14.61-6.42 3.44-4.08 5.16-10.01 5.16-17.78 0-8.06-1.72-14.09-5.16-18.07-3.45-3.98-8.37-6.02-14.76-6.12-6.29 0.1-11.16 2.14-14.61 6.12-3.44 3.98-5.16 10.01-5.16 18.07 0 7.77 1.75 13.7 5.24 17.78s8.38 6.22 14.68 6.42z"/>
    <path class="fil5" d="m349.64 93.02h-34.37l-6.59 17.94h-8l27.56-74.57h8.54l27.45 74.57h-8l-6.59-17.94zm-2.27-6.27-14.92-40.85-14.91 40.85h29.83zm36.52-55.76v79.97h-7.56v-79.97h7.56zm70.57 47.44c0 2.59-0.07 4.57-0.21 5.94h-48.96c0.22 4.47 1.3 8.29 3.24 11.46 1.95 3.17 4.51 5.56 7.68 7.18s6.62 2.44 10.37 2.44c4.9 0 9.02-1.19 12.38-3.57 3.35-2.38 5.56-5.58 6.64-9.62h8c-1.44 5.76-4.52 10.47-9.24 14.1-4.72 3.64-10.65 5.46-17.78 5.46-5.55 0-10.52-1.24-14.91-3.73-4.4-2.48-7.84-6.01-10.32-10.59-2.49-4.57-3.73-9.92-3.73-16.05 0-6.12 1.22-11.49 3.67-16.1s5.87-8.14 10.27-10.59c4.39-2.45 9.4-3.67 15.02-3.67s10.54 1.22 14.75 3.67c4.22 2.45 7.46 5.75 9.73 9.89s3.4 8.73 3.4 13.78zm-7.67-0.22c0.07-4.39-0.81-8.14-2.65-11.24-1.83-3.1-4.34-5.44-7.51-7.02-3.17-1.59-6.63-2.38-10.37-2.38-5.62 0-10.41 1.8-14.38 5.4-3.96 3.61-6.16 8.69-6.59 15.24h41.5zm53.39 32.75-24.32-26.48v26.48h-7.56v-79.97h7.56v47.33l23.78-26.37h10.59l-27.99 29.4 28.2 29.61h-10.26zm40.31 0.86c-6.78 0-12.31-1.57-16.59-4.7-4.29-3.13-6.68-7.4-7.19-12.81h7.78c0.36 3.32 1.93 6 4.7 8.06 2.78 2.05 6.51 3.08 11.19 3.08 4.1 0 7.33-0.98 9.67-2.92 2.34-1.95 3.51-4.36 3.51-7.24 0-2.02-0.65-3.68-1.94-4.97-1.3-1.3-2.94-2.33-4.92-3.08-1.98-0.76-4.66-1.57-8.05-2.44-4.4-1.15-7.96-2.3-10.7-3.45-2.74-1.16-5.06-2.87-6.97-5.14s-2.86-5.31-2.86-9.13c0-2.88 0.86-5.55 2.59-8s4.18-4.39 7.35-5.83 6.77-2.16 10.81-2.16c6.34 0 11.45 1.6 15.34 4.81 3.89 3.2 5.98 7.61 6.27 13.23h-7.57c-0.21-3.45-1.56-6.25-4.05-8.37-2.48-2.13-5.89-3.19-10.21-3.19-3.82 0-6.92 0.9-9.3 2.7-2.37 1.8-3.56 4.04-3.56 6.7 0 2.31 0.7 4.2 2.11 5.68 1.4 1.47 3.15 2.63 5.24 3.45 2.09 0.83 4.9 1.75 8.43 2.76 4.25 1.15 7.63 2.27 10.16 3.35 2.52 1.08 4.68 2.67 6.48 4.75 1.8 2.09 2.74 4.87 2.81 8.33 0 3.17-0.87 5.99-2.59 8.48-1.73 2.49-4.15 4.45-7.24 5.89-3.1 1.44-6.67 2.16-10.7 2.16zm31.34-30.47c0-6.06 1.2-11.37 3.62-15.94 2.41-4.58 5.76-8.11 10.05-10.59 4.28-2.49 9.13-3.73 14.53-3.73 5.62 0 10.47 1.29 14.54 3.89 4.07 2.59 7 5.9 8.8 9.94v-12.97h7.57v59.01h-7.57v-13.08c-1.87 4.04-4.84 7.37-8.91 10s-8.92 3.94-14.54 3.94c-5.33 0-10.14-1.26-14.42-3.78-4.29-2.52-7.64-6.09-10.05-10.7-2.42-4.61-3.62-9.94-3.62-15.99zm51.54 0.1c0-4.75-0.97-8.93-2.91-12.53-1.95-3.6-4.6-6.38-7.95-8.32-3.35-1.95-7.04-2.92-11.07-2.92-4.18 0-7.93 0.93-11.24 2.81-3.32 1.87-5.93 4.59-7.84 8.16-1.91 3.56-2.86 7.8-2.86 12.7 0 4.82 0.95 9.06 2.86 12.69 1.91 3.64 4.52 6.42 7.84 8.33 3.31 1.9 7.06 2.86 11.24 2.86 4.03 0 7.72-0.97 11.07-2.92 3.35-1.94 6-4.72 7.95-8.32 1.94-3.6 2.91-7.78 2.91-12.54zm52.53-30.58c7.06 0 12.82 2.18 17.29 6.54 4.46 4.36 6.7 10.68 6.7 18.97v34.58h-7.46v-33.72c0-6.41-1.6-11.31-4.81-14.7-3.2-3.38-7.58-5.08-13.13-5.08-5.69 0-10.23 1.8-13.62 5.41-3.38 3.6-5.07 8.89-5.07 15.88v32.21h-7.57v-59.01h7.57v10.05c1.87-3.6 4.57-6.36 8.1-8.27s7.53-2.86 12-2.86zm37.28 30.48c0-6.06 1.22-11.37 3.67-15.94 2.45-4.58 5.82-8.11 10.11-10.59 4.28-2.49 9.13-3.73 14.53-3.73 5.19 0 9.87 1.26 14.05 3.78s7.24 5.8 9.19 9.83v-33.71h7.56v79.97h-7.56v-13.19c-1.8 4.11-4.76 7.48-8.86 10.11-4.11 2.63-8.94 3.94-14.48 3.94-5.41 0-10.25-1.26-14.54-3.78s-7.64-6.09-10.05-10.7-3.62-9.94-3.62-15.99zm51.55 0.1c0-4.75-0.97-8.93-2.92-12.53-1.94-3.6-4.59-6.38-7.94-8.32-3.35-1.95-7.05-2.92-11.08-2.92-4.18 0-7.92 0.93-11.24 2.81-3.31 1.87-5.92 4.59-7.83 8.16-1.91 3.56-2.87 7.8-2.87 12.7 0 4.82 0.96 9.06 2.87 12.69 1.91 3.64 4.52 6.42 7.83 8.33 3.32 1.9 7.06 2.86 11.24 2.86 4.03 0 7.73-0.97 11.08-2.92 3.35-1.94 6-4.72 7.94-8.32 1.95-3.6 2.92-7.78 2.92-12.54zm32.42-19.02c1.66-3.67 4.2-6.52 7.62-8.53 3.42-2.02 7.62-3.03 12.59-3.03v7.89h-2.06c-5.47 0-9.87 1.48-13.18 4.43s-4.97 7.89-4.97 14.81v32.96h-7.57v-59.01h7.57v10.48zm28.1 18.92c0-6.06 1.2-11.37 3.62-15.94 2.41-4.58 5.76-8.11 10.05-10.59 4.28-2.49 9.13-3.73 14.53-3.73 5.62 0 10.47 1.29 14.54 3.89 4.07 2.59 7 5.9 8.8 9.94v-12.97h7.57v59.01h-7.57v-13.08c-1.87 4.04-4.84 7.37-8.91 10s-8.92 3.94-14.54 3.94c-5.33 0-10.14-1.26-14.42-3.78-4.29-2.52-7.64-6.09-10.05-10.7-2.42-4.61-3.62-9.94-3.62-15.99zm51.54 0.1c0-4.75-0.97-8.93-2.91-12.53-1.95-3.6-4.6-6.38-7.95-8.32-3.35-1.95-7.04-2.92-11.07-2.92-4.18 0-7.93 0.93-11.24 2.81-3.32 1.87-5.93 4.59-7.84 8.16-1.91 3.56-2.86 7.8-2.86 12.7 0 4.82 0.95 9.06 2.86 12.69 1.91 3.64 4.52 6.42 7.84 8.33 3.31 1.9 7.06 2.86 11.24 2.86 4.03 0 7.72-0.97 11.07-2.92 3.35-1.94 6-4.72 7.95-8.32 1.94-3.6 2.91-7.78 2.91-12.54z"/>
   
  
 
</svg>
