<svg xmlns:xlink="http://www.w3.org/1999/xlink" id="wave" style="transform:rotate(180deg); transition: 0.3s" viewBox="0 0 1440 170" version="1.1" xmlns="http://www.w3.org/2000/svg"><defs><linearGradient id="sw-gradient-0" x1="0" x2="0" y1="1" y2="0"><stop stop-color="rgba(24, 24, 24, 1)" offset="0%"/><stop stop-color="rgba(24, 24, 24, 1)" offset="100%"/></linearGradient></defs><path style="transform:translate(0, 0px); opacity:1" fill="url(#sw-gradient-0)" d="M0,51L60,45.3C120,40,240,28,360,19.8C480,11,600,6,720,28.3C840,51,960,102,1080,107.7C1200,113,1320,74,1440,53.8C1560,34,1680,34,1800,51C1920,68,2040,102,2160,116.2C2280,130,2400,125,2520,124.7C2640,125,2760,130,2880,110.5C3000,91,3120,45,3240,34C3360,23,3480,45,3600,70.8C3720,96,3840,125,3960,133.2C4080,142,4200,130,4320,104.8C4440,79,4560,40,4680,25.5C4800,11,4920,23,5040,28.3C5160,34,5280,34,5400,53.8C5520,74,5640,113,5760,119C5880,125,6000,96,6120,73.7C6240,51,6360,34,6480,42.5C6600,51,6720,85,6840,104.8C6960,125,7080,130,7200,121.8C7320,113,7440,91,7560,73.7C7680,57,7800,45,7920,42.5C8040,40,8160,45,8280,59.5C8400,74,8520,96,8580,107.7L8640,119L8640,170L8580,170C8520,170,8400,170,8280,170C8160,170,8040,170,7920,170C7800,170,7680,170,7560,170C7440,170,7320,170,7200,170C7080,170,6960,170,6840,170C6720,170,6600,170,6480,170C6360,170,6240,170,6120,170C6000,170,5880,170,5760,170C5640,170,5520,170,5400,170C5280,170,5160,170,5040,170C4920,170,4800,170,4680,170C4560,170,4440,170,4320,170C4200,170,4080,170,3960,170C3840,170,3720,170,3600,170C3480,170,3360,170,3240,170C3120,170,3000,170,2880,170C2760,170,2640,170,2520,170C2400,170,2280,170,2160,170C2040,170,1920,170,1800,170C1680,170,1560,170,1440,170C1320,170,1200,170,1080,170C960,170,840,170,720,170C600,170,480,170,360,170C240,170,120,170,60,170L0,170Z"/></svg>